<svg width="751" height="515" viewBox="0 0 751 515" fill="none" xmlns="http://www.w3.org/2000/svg">
<g style="mix-blend-mode:hard-light" filter="url(#filter0_d_0_57)">
<path d="M695.853 1H55C27.3858 1 5 23.3857 5 51V456.5C5 484.114 27.3858 506.5 55 506.5H469.639C487.766 506.5 504.473 496.689 513.304 480.859L739.518 75.3591C758.11 42.0312 734.016 1 695.853 1Z" fill="url(#paint0_linear_0_57)"/>
<path d="M695.853 1H55C27.3858 1 5 23.3857 5 51V456.5C5 484.114 27.3858 506.5 55 506.5H469.639C487.766 506.5 504.473 496.689 513.304 480.859L739.518 75.3591C758.11 42.0312 734.016 1 695.853 1Z" stroke="black"/>
</g>
<defs>
<filter id="filter0_d_0_57" x="0.5" y="0.5" width="749.926" height="514.5" filterUnits="userSpaceOnUse" color-interpolation-filters="sRGB">
<feFlood flood-opacity="0" result="BackgroundImageFix"/>
<feColorMatrix in="SourceAlpha" type="matrix" values="0 0 0 0 0 0 0 0 0 0 0 0 0 0 0 0 0 0 127 0" result="hardAlpha"/>
<feOffset dy="4"/>
<feGaussianBlur stdDeviation="2"/>
<feComposite in2="hardAlpha" operator="out"/>
<feColorMatrix type="matrix" values="0 0 0 0 0 0 0 0 0 0 0 0 0 0 0 0 0 0 0.25 0"/>
<feBlend mode="normal" in2="BackgroundImageFix" result="effect1_dropShadow_0_57"/>
<feBlend mode="normal" in="SourceGraphic" in2="effect1_dropShadow_0_57" result="shape"/>
</filter>
<linearGradient id="paint0_linear_0_57" x1="5.00001" y1="113.333" x2="778.663" y2="171.891" gradientUnits="userSpaceOnUse">
<stop stop-color="#00D1FF"/>
<stop offset="0.503069" stop-color="#FF50E3"/>
<stop offset="1" stop-color="#AD00FF"/>
</linearGradient>
</defs>
</svg>
