<svg width="61" height="29" viewBox="0 0 61 29" fill="none" xmlns="http://www.w3.org/2000/svg">
<path id="Vector" d="M54.8752 9.08325H60.2918V19.9166H54.8752V9.08325ZM0.708496 9.08325H6.12516V19.9166H0.708496V9.08325ZM46.7502 6.37492C46.7502 4.93833 46.1795 3.56058 45.1637 2.54476C44.1478 1.52893 42.7701 0.958252 41.3335 0.958252H19.6668C18.2302 0.958252 16.8525 1.52893 15.8367 2.54476C14.8208 3.56058 14.2502 4.93833 14.2502 6.37492C12.8136 6.37492 11.4358 6.9456 10.42 7.96142C9.40418 8.97725 8.8335 10.355 8.8335 11.7916V17.2083C8.8335 18.6448 9.40418 20.0226 10.42 21.0384C11.4358 22.0542 12.8136 22.6249 14.2502 22.6249C14.2502 24.0615 14.8208 25.4393 15.8367 26.4551C16.8525 27.4709 18.2302 28.0416 19.6668 28.0416H22.451L26.7897 20.5233C27.1658 19.872 27.7067 19.3312 28.358 18.9552C29.0093 18.5792 29.7481 18.3812 30.5002 18.3812C31.2522 18.3812 31.991 18.5792 32.6423 18.9552C33.2936 19.3312 33.8345 19.872 34.2106 20.5233L38.5493 28.0416H41.3335C42.7701 28.0416 44.1478 27.4709 45.1637 26.4551C46.1795 25.4393 46.7502 24.0615 46.7502 22.6249C48.1867 22.6249 49.5645 22.0542 50.5803 21.0384C51.5961 20.0226 52.1668 18.6448 52.1668 17.2083V11.7916C52.1668 10.355 51.5961 8.97725 50.5803 7.96142C49.5645 6.9456 48.1867 6.37492 46.7502 6.37492ZM44.0418 14.4999H16.9585V9.08325H44.0418V14.4999Z" fill="white"/>
</svg>
